<?xml version="1.0" standalone="no"?>
<!DOCTYPE svg PUBLIC "-//W3C//DTD SVG 20010904//EN"
 "http://www.w3.org/TR/2001/REC-SVG-20010904/DTD/svg10.dtd">
<svg version="1.0" xmlns="http://www.w3.org/2000/svg"
 width="876.000000pt" height="994.000000pt" viewBox="0 0 876.000000 994.000000"
 preserveAspectRatio="xMidYMid meet">
<metadata>
Created by potrace 1.16, written by Peter Selinger 2001-2019
</metadata>
<g transform="translate(0.000000,994.000000) scale(0.100000,-0.100000)"
fill="#000000" stroke="none">
<path d="M4348 8721 c-1 -6 -93 -15 -203 -21 -110 -7 -213 -15 -230 -20 l-30
-8 31 -1 c18 -1 34 -7 37 -15 3 -7 15 -16 27 -19 16 -4 24 0 30 16 5 12 9 17
9 10 1 -7 8 -10 17 -6 14 5 15 3 5 -15 -6 -12 -24 -25 -39 -29 -33 -8 -52 -26
-52 -50 0 -24 -11 -38 -30 -38 -8 0 -15 -9 -15 -20 0 -15 -6 -19 -24 -17 -20
3 -23 0 -18 -17 7 -29 -6 -34 -80 -32 l-63 2 0 -68 c0 -69 -15 -143 -28 -143
-4 0 -21 -22 -37 -50 -16 -27 -32 -50 -35 -50 -11 0 -65 -119 -75 -167 -4 -18
-10 -33 -15 -33 -4 0 -10 -18 -14 -40 -3 -22 -15 -56 -26 -75 -11 -20 -20 -47
-20 -60 0 -18 -5 -25 -20 -25 -11 0 -20 -5 -20 -11 0 -6 -7 -17 -15 -25 -8 -9
-16 -32 -16 -52 -1 -20 -3 -29 -6 -20 -3 14 -10 11 -35 -15 -51 -53 -80 -96
-73 -107 3 -5 -2 -10 -13 -10 -28 0 -32 -18 -32 -131 0 -80 3 -99 14 -99 8 0
17 -4 20 -9 4 -5 -2 -7 -11 -5 -17 5 -18 -9 -21 -181 -2 -145 0 -185 10 -185
8 0 9 -3 3 -8 -10 -7 -11 -10 -13 -63 -2 -30 -3 -30 -44 -27 -34 2 -43 -1 -46
-15 -2 -9 -10 -17 -18 -17 -8 0 -14 -4 -14 -10 0 -5 6 -10 13 -10 8 0 7 -4 -3
-10 -8 -5 -11 -10 -5 -10 5 0 -11 -20 -38 -44 -26 -25 -47 -52 -47 -60 0 -9
-6 -16 -13 -16 -6 0 -18 -15 -26 -32 -8 -18 -19 -40 -26 -48 -7 -8 -15 -27
-19 -42 -3 -16 -11 -28 -16 -28 -6 0 -10 -9 -10 -21 0 -11 -10 -43 -21 -70
-17 -39 -26 -49 -45 -49 -24 0 -46 -28 -42 -52 2 -8 -7 -13 -22 -14 -43 -2
-46 -4 -26 -19 11 -8 14 -15 8 -15 -8 0 -12 -20 -12 -60 l0 -60 -87 -2 c-49
-1 -101 -2 -118 -2 l-30 -1 -3 -117 c-3 -113 -2 -118 18 -118 15 0 20 -7 20
-26 0 -16 11 -37 27 -51 21 -20 23 -27 12 -34 -8 -5 -18 -9 -22 -9 -5 0 -5 -9
-2 -20 7 -23 -4 -85 -13 -75 -4 4 -7 27 -7 53 0 36 -4 47 -17 50 -16 3 -18 -5
-18 -62 0 -64 -1 -66 -25 -66 -24 0 -25 -2 -27 -72 -1 -40 -2 -93 -1 -118 2
-39 1 -42 -8 -20 -6 14 -9 41 -7 62 2 20 0 34 -4 32 -5 -3 -8 22 -8 55 0 34
-4 61 -9 61 -5 0 -11 -87 -14 -192 -4 -155 -11 -222 -33 -338 -32 -167 -36
-293 -14 -510 19 -188 20 -618 1 -653 -13 -24 -11 -36 12 -115 15 -49 27 -103
27 -120 0 -29 2 -30 53 -34 28 -3 84 -10 122 -16 39 -7 91 -15 118 -18 32 -3
47 -10 47 -20 0 -22 74 -17 145 8 56 21 78 22 350 24 165 1 318 6 355 12 85
15 388 15 465 0 76 -15 145 -14 215 2 80 18 490 8 587 -15 68 -16 76 -16 135
0 97 27 350 32 459 10 66 -14 152 -19 396 -22 l313 -5 42 33 c57 43 68 54 41
40 -29 -15 -3649 -16 -3658 -1 -3 6 3 10 13 10 11 0 25 7 32 15 11 13 8 14
-20 8 -24 -4 -31 -3 -26 5 4 7 3 12 -3 12 -5 0 -19 16 -31 35 -17 27 -25 33
-35 25 -19 -15 -25 9 -25 93 0 98 6 117 37 117 20 0 23 3 15 13 -8 10 -6 16 9
26 24 14 39 7 21 -11 -7 -7 -12 -18 -12 -25 0 -11 5 -11 21 -3 12 7 18 18 15
26 -3 8 3 23 14 34 24 24 30 25 30 4 0 -8 -4 -12 -10 -9 -5 3 -10 -2 -10 -12
-1 -33 -49 -73 -90 -73 -22 0 -27 -15 -9 -26 6 -4 9 -20 6 -39 -3 -20 0 -41 9
-53 8 -12 14 -25 13 -29 -3 -20 3 -35 27 -60 l25 -28 1812 3 c2035 3 1856 -5
1858 80 1 26 5 61 9 77 8 30 8 30 9 -7 2 -59 21 -45 21 15 0 60 -16 97 -26 60
-6 -21 -7 -21 -30 13 -29 43 -30 48 -3 34 11 -7 23 -9 26 -6 3 3 18 -3 32 -13
26 -19 26 -20 22 -122 -3 -75 -6 -94 -11 -69 l-7 35 -2 -43 c-1 -35 -4 -42
-18 -40 -13 2 -17 -3 -15 -16 3 -15 -1 -17 -22 -12 -14 3 -26 2 -26 -3 0 -5
-9 -11 -20 -14 -11 -3 -20 -10 -20 -16 0 -6 13 -4 35 5 19 8 38 14 42 14 5 -1
22 10 40 24 18 15 37 26 42 26 6 0 11 7 11 15 0 7 8 18 17 24 16 8 19 44 27
358 12 422 11 535 -5 564 -8 17 -10 122 -8 408 5 458 -7 761 -28 761 -41 0
-52 50 -63 280 l-7 155 -1 -117 c-2 -105 -4 -118 -19 -119 -10 -1 -61 -1 -113
-1 l-95 0 -6 83 c-3 46 -5 121 -4 166 l2 82 -43 16 c-46 18 -84 46 -84 64 0 6
-9 11 -20 11 -10 0 -23 6 -27 13 -4 6 -20 18 -35 26 -16 8 -28 20 -28 28 0 7
-5 13 -10 13 -18 0 -66 45 -155 145 -33 37 -67 74 -75 83 -17 17 -17 154 0
212 21 72 0 298 -28 308 -9 3 -13 -3 -12 -14 1 -11 2 -28 1 -39 -2 -19 -2 -19
-12 -2 -6 10 -10 35 -8 55 1 20 1 79 0 130 -1 72 -4 92 -15 92 -14 0 -36 49
-36 80 0 10 -9 20 -20 23 -15 4 -20 14 -20 41 0 29 -4 36 -20 36 -12 0 -20 7
-21 18 0 14 -2 14 -9 -3 -7 -16 -9 -12 -11 20 -4 85 -15 113 -42 117 -12 2
-23 12 -25 22 -3 11 -10 26 -18 34 -8 7 -14 27 -14 43 0 22 -5 29 -20 29 -11
0 -20 5 -20 11 0 8 -5 8 -15 -1 -13 -10 -15 -9 -15 9 0 12 5 19 10 16 6 -3 10
-1 10 4 0 6 -4 11 -10 11 -5 0 -10 9 -10 20 0 11 -4 20 -10 20 -5 0 -10 10
-11 23 0 21 -1 21 -9 2 -12 -28 -12 -35 1 -32 6 1 14 -4 16 -10 3 -7 -1 -13
-7 -13 -8 0 -9 -11 -5 -32 6 -31 5 -32 -10 -13 -8 11 -20 36 -25 56 -6 20 -17
40 -26 43 -8 3 -13 10 -9 15 3 5 1 12 -5 16 -17 11 -11 23 15 29 31 8 24 27
-8 20 -46 -11 -51 -9 -61 24 -5 19 -20 41 -33 49 -13 8 -23 22 -23 30 0 18
-175 190 -202 199 -21 6 -24 24 -5 24 8 0 26 -14 42 -31 23 -27 29 -29 36 -16
8 14 12 14 39 1 16 -8 39 -30 50 -49 12 -19 26 -35 31 -35 17 0 38 -55 27 -74
-7 -13 -5 -21 9 -31 10 -8 21 -15 26 -15 10 0 9 18 -3 25 -12 7 -13 25 -2 25
4 0 21 -25 37 -55 32 -58 45 -68 45 -35 0 11 -4 20 -10 20 -5 0 -10 15 -10 34
0 28 -4 35 -22 38 -17 2 -24 11 -26 31 -2 15 -9 27 -18 27 -8 0 -14 6 -14 14
0 8 -7 16 -15 20 -8 3 -15 14 -15 25 0 10 -7 21 -15 25 -10 4 -15 20 -15 51
l0 45 -43 0 c-52 0 -67 13 -67 57 0 31 -2 33 -33 33 -18 0 -51 9 -72 20 -22
12 -53 20 -70 19 -40 -3 -105 11 -105 22 0 12 -237 12 -242 0z m62 -43 c7 -18
9 -19 9 -5 1 14 11 17 65 17 36 0 68 -4 71 -10 4 -6 -16 -10 -52 -11 -52 0
-56 -1 -33 -12 22 -10 14 -12 -62 -15 -49 -1 -88 -6 -88 -11 0 -5 -17 -4 -38
2 -30 8 -48 6 -91 -9 -30 -11 -56 -26 -59 -34 -4 -12 -2 -13 9 -2 7 6 26 12
41 12 15 0 28 5 28 10 0 6 7 10 15 10 28 0 15 -18 -17 -25 -18 -4 -41 -14 -51
-23 -13 -12 -22 -13 -41 -4 -23 10 -36 7 -36 -9 0 -4 8 -10 18 -12 13 -4 12
-5 -5 -6 -16 -1 -21 -6 -17 -16 4 -11 -1 -15 -17 -17 -32 -2 -41 -3 -62 -13
-58 -25 -1 47 63 80 19 10 47 28 61 40 27 22 141 51 158 40 6 -3 29 -2 52 1
39 7 41 8 19 16 -20 7 -22 11 -10 18 27 17 60 11 70 -12z m-1000 -1472 c0 -12
-5 -27 -11 -33 -6 -6 -9 -19 -6 -29 3 -17 5 -16 15 6 10 23 11 21 12 -20 0
-25 7 -56 15 -70 16 -29 20 -74 5 -65 -5 3 -10 16 -10 28 0 15 -3 18 -11 10
-7 -7 -9 -23 -5 -38 5 -20 11 -25 26 -20 14 4 22 1 27 -11 4 -10 2 -19 -5 -22
-21 -7 -13 -25 8 -19 15 4 20 0 20 -13 0 -24 -17 -35 -33 -21 -9 7 -16 5 -25
-10 -7 -10 -19 -19 -27 -19 -8 0 -15 -7 -15 -16 0 -14 3 -14 15 -4 8 7 15 9
15 5 0 -4 7 -2 15 5 9 7 18 10 21 8 3 -3 -8 -15 -24 -27 -16 -11 -32 -18 -36
-14 -3 3 -6 -1 -6 -10 0 -20 -16 -23 -23 -4 -3 9 -7 9 -20 -2 -13 -10 -15 -17
-6 -27 15 -18 -7 -48 -29 -39 -21 8 -35 -4 -22 -19 10 -13 8 -16 -80 -112 -21
-23 -43 -51 -50 -63 -6 -12 -15 -19 -19 -16 -5 3 -11 -5 -15 -18 -5 -22 -46
-56 -46 -38 0 5 7 11 15 15 9 3 15 18 15 36 0 17 5 30 13 30 9 0 9 2 -1 9 -10
6 -9 11 4 22 9 8 23 29 31 47 15 37 33 42 33 10 l0 -21 25 23 c18 17 23 30 19
46 -5 18 1 30 22 48 16 13 56 50 89 83 85 83 115 133 81 133 -30 0 -68 188
-44 217 5 6 6 29 2 50 -6 35 -6 37 9 24 10 -7 17 -23 17 -35z m-747 -1621 c-1
-16 -7 -31 -13 -35 -6 -4 -8 -14 -5 -23 7 -16 -13 -63 -22 -53 -12 12 -43 -16
-43 -38 0 -13 -10 -30 -22 -38 -15 -10 -19 -20 -15 -32 7 -16 9 -16 27 5 21
25 26 15 11 -23 -4 -13 -16 -49 -26 -80 -10 -32 -22 -58 -27 -58 -4 0 -8 -7
-8 -16 0 -8 4 -13 9 -9 6 3 13 -11 16 -32 3 -21 10 -56 15 -78 5 -22 11 -59
14 -82 3 -23 9 -48 12 -57 4 -11 1 -16 -11 -16 -11 0 -15 5 -12 15 4 8 1 17
-5 21 -7 4 -8 -6 -3 -34 4 -24 2 -42 -4 -46 -6 -4 -8 -13 -5 -20 3 -8 1 -17
-5 -21 -7 -4 -11 3 -11 17 0 18 -2 20 -10 8 -15 -24 -13 9 4 58 9 25 11 44 5
47 -5 4 -9 -5 -9 -19 0 -14 -4 -26 -10 -26 -13 0 -13 13 1 44 9 19 7 37 -10
87 -24 73 -25 80 -8 77 7 -2 12 7 12 22 0 18 -5 24 -17 22 -14 -2 -18 4 -18
29 0 23 4 30 15 25 19 -7 38 28 30 57 -4 15 -3 18 3 9 13 -19 22 6 11 33 -14
37 -9 66 17 90 14 13 24 29 23 37 -4 31 1 49 13 42 7 -4 8 -3 4 4 -4 6 -4 23
0 37 5 20 9 23 15 13 5 -7 9 -23 9 -35 0 -13 4 -23 9 -23 5 0 13 29 16 65 5
42 11 64 19 62 6 -2 10 -17 9 -32z m3687 -262 c0 -21 5 -33 14 -33 18 0 40
-82 32 -123 -19 -102 -36 -161 -48 -168 -7 -5 -14 -4 -16 1 -2 6 -9 10 -15 10
-8 0 -7 -4 1 -12 18 -18 16 -59 -3 -52 -8 4 -15 1 -15 -5 0 -6 -6 -11 -14 -11
-20 0 -8 40 13 41 9 0 11 3 4 5 -9 4 -8 15 3 46 8 22 14 51 14 65 0 32 17 63
35 63 17 0 28 33 20 60 -3 11 -15 20 -26 20 -10 0 -19 5 -19 10 0 6 5 10 10
10 6 0 10 7 10 16 0 9 -5 12 -11 8 -9 -5 -10 6 -7 39 3 26 2 44 -3 41 -5 -3
-6 2 -2 11 9 24 23 -1 23 -42z m-3250 -43 c30 -22 65 -44 78 -50 13 -5 38 -21
55 -34 18 -13 57 -36 87 -50 30 -15 69 -34 85 -44 20 -11 53 -17 95 -17 54 0
77 6 133 34 81 39 104 37 159 -18 43 -44 46 -58 18 -94 -11 -14 -20 -33 -20
-44 -1 -10 -7 -29 -15 -43 -8 -14 -14 -35 -15 -46 0 -12 -6 -24 -14 -27 -7 -3
-17 -22 -20 -42 -7 -36 -8 -37 -44 -33 -42 6 -102 53 -102 80 0 10 10 38 22
63 12 24 18 48 14 52 -13 13 -76 -69 -82 -107 -5 -27 -14 -39 -40 -52 -69 -35
-127 -15 -138 47 -5 27 -26 55 -82 110 -40 41 -74 78 -74 82 0 5 -14 24 -30
43 l-29 35 -1 -31 c0 -60 29 -120 91 -183 39 -41 59 -69 59 -85 0 -28 -24 -56
-47 -56 -15 0 -81 50 -147 112 -42 40 -116 190 -116 237 0 14 -7 46 -16 70
-14 40 -13 46 4 79 16 31 34 44 72 51 3 1 30 -17 60 -39z m2795 -2 c31 -37 30
-58 -14 -170 -16 -40 -34 -95 -41 -121 -9 -33 -28 -63 -59 -97 -26 -28 -52
-50 -57 -50 -6 0 -25 -16 -43 -35 -50 -55 -91 -43 -91 26 0 32 7 43 45 76 39
33 49 50 76 131 17 51 28 96 24 100 -10 10 -45 -37 -52 -69 -6 -32 -37 -69
-58 -69 -8 0 -15 -4 -15 -9 0 -5 -18 -27 -39 -49 -21 -22 -42 -54 -46 -71 -10
-47 -41 -71 -91 -71 -45 0 -94 17 -94 32 0 30 -72 152 -92 156 -15 3 -14 -3 7
-40 15 -27 25 -59 25 -85 0 -38 -4 -45 -37 -68 -41 -27 -75 -32 -90 -12 -5 6
-18 35 -28 62 -10 28 -21 55 -25 60 -14 17 -50 128 -50 151 0 26 59 81 96 90
18 5 44 -3 92 -27 55 -28 77 -34 131 -34 55 0 76 5 125 33 33 17 65 32 72 32
7 0 25 11 41 23 15 13 57 41 93 61 35 21 71 47 78 57 9 13 25 19 52 19 31 0
43 -6 65 -32z m-2947 -260 c18 -51 32 -103 32 -114 0 -26 36 -74 55 -74 8 0
19 -8 24 -19 6 -10 42 -42 81 -71 58 -43 70 -57 70 -80 0 -18 -8 -33 -22 -42
-20 -13 -27 -13 -61 2 -20 9 -48 26 -60 38 -13 12 -28 22 -35 22 -6 0 -24 16
-39 35 -15 19 -33 35 -39 35 -16 0 -36 26 -52 69 -24 63 -62 193 -62 212 0 16
56 79 70 79 3 0 20 -42 38 -92z m3046 61 c23 -27 25 -36 20 -87 -3 -31 -15
-86 -26 -121 -17 -53 -30 -73 -82 -121 -90 -85 -167 -140 -196 -140 -17 0 -31
9 -42 27 -15 26 -15 28 15 65 17 21 37 38 46 38 9 0 32 17 52 38 20 20 47 47
61 59 25 22 78 146 78 181 0 35 21 92 35 92 7 0 25 -14 39 -31z m-3164 -175
c11 -101 27 -155 51 -172 11 -7 19 -19 19 -26 0 -7 13 -25 29 -40 42 -40 68
-101 51 -121 -20 -24 -59 -19 -70 9 -5 14 -23 35 -39 47 -17 12 -33 31 -37 41
-3 10 -18 25 -33 32 -35 19 -61 106 -61 205 0 67 1 71 32 95 18 14 36 22 41
17 4 -4 12 -44 17 -87z m3300 -4 c0 -13 -9 -63 -21 -110 -17 -68 -29 -94 -58
-126 -20 -22 -55 -62 -78 -88 -36 -41 -46 -47 -68 -42 -14 4 -28 12 -31 20 -5
14 50 101 102 159 19 22 34 49 34 64 0 13 9 57 20 96 10 40 22 85 25 102 l6
29 34 -39 c19 -22 34 -51 35 -65z m239 56 c9 -10 8 -16 -4 -26 -15 -12 -11
-35 5 -25 16 10 22 -99 14 -244 -6 -118 -9 -141 -18 -118 -6 16 -15 26 -23 23
-16 -7 -16 -7 1 42 10 27 11 43 4 50 -7 7 -9 46 -6 104 4 71 1 98 -10 116 -11
17 -12 26 -3 35 6 6 11 21 11 34 0 26 12 30 29 9z m-3675 -118 c3 -13 6 -68 6
-123 0 -74 6 -117 22 -169 21 -67 21 -69 3 -83 -27 -19 -49 -12 -55 17 -6 26
-33 92 -50 122 -13 24 -13 214 0 239 16 28 66 26 74 -3z m3550 -128 c0 -125
-3 -150 -20 -179 -10 -18 -23 -42 -29 -52 -11 -22 -50 -25 -58 -5 -3 8 4 43
17 78 20 56 22 77 19 186 l-4 123 38 -3 38 -3 -1 -145z m-3724 16 c7 -30 10
-68 7 -85 -4 -18 -2 -31 3 -31 6 0 10 -8 10 -17 1 -29 48 -156 69 -184 18 -23
18 -28 5 -33 -10 -4 -13 -13 -9 -26 7 -24 -7 -26 -25 -5 -10 13 -10 19 4 34
11 13 14 21 7 26 -6 3 -11 15 -11 26 0 10 -4 19 -10 19 -5 0 -10 -6 -10 -14 0
-8 -4 -17 -9 -21 -6 -3 -6 7 0 27 11 40 11 38 -1 38 -5 0 -10 -7 -10 -16 0
-22 -24 -12 -28 12 -2 10 -8 29 -14 40 -7 15 -7 28 2 44 12 23 4 43 -9 21 -13
-20 -18 4 -18 84 -1 59 0 64 7 30 7 -37 7 -36 9 23 0 34 5 62 9 62 5 0 15 -24
22 -54z m673 -346 c-13 -10 -23 -23 -23 -29 0 -6 -3 -11 -7 -12 -25 -2 -46 -8
-51 -15 -4 -4 1 -4 11 -1 13 5 17 3 15 -5 -3 -7 -10 -14 -16 -14 -38 -4 -37
-4 -24 -12 9 -6 2 -20 -27 -54 -22 -24 -43 -57 -47 -71 -9 -37 11 -59 45 -50
25 6 25 5 9 -14 -10 -11 -18 -24 -18 -30 0 -5 -9 -18 -21 -29 -20 -18 -20 -18
-18 6 4 44 -1 58 -21 63 -22 6 -26 -3 -9 -20 6 -6 14 -27 19 -48 7 -32 5 -41
-16 -64 -13 -14 -24 -29 -24 -33 0 -5 -4 -8 -10 -8 -19 0 -10 30 15 46 37 24
31 30 -27 28 -40 -2 -54 -6 -56 -18 -2 -11 -14 -16 -35 -16 l-32 0 24 19 c20
15 22 21 12 40 -10 18 -8 25 13 46 14 14 30 25 36 25 5 0 10 9 10 19 0 11 9
22 19 26 11 3 22 12 25 20 8 23 26 18 26 -7 0 -18 2 -20 10 -8 5 9 5 19 -2 28
-12 13 7 62 24 62 13 0 10 -12 -9 -32 -15 -17 -15 -18 0 -18 10 0 17 7 17 15
0 8 5 15 11 15 6 0 8 9 4 20 -5 15 -2 20 14 20 14 0 21 8 23 27 2 19 15 36 41
52 20 13 37 30 37 37 0 8 6 11 14 8 8 -3 17 0 21 6 4 6 10 8 14 5 3 -4 -4 -15
-16 -25z m2727 -231 c41 -42 84 -88 95 -101 12 -12 30 -28 40 -34 11 -7 17
-14 14 -18 -3 -3 -18 3 -33 15 -15 12 -30 19 -33 16 -10 -11 10 -29 53 -48 42
-19 65 -39 45 -39 -5 0 -12 6 -15 13 -5 10 -7 10 -12 0 -7 -16 -45 -17 -41 -2
1 6 -4 14 -12 17 -10 3 -12 0 -8 -12 5 -12 0 -16 -19 -16 -14 0 -34 5 -44 10
-13 7 -21 7 -25 0 -3 -5 -11 -10 -16 -10 -6 0 -7 5 -4 11 4 6 -2 13 -14 16
-26 7 -28 23 -2 23 17 0 19 5 14 36 -4 24 -2 39 7 44 8 5 9 10 2 14 -11 6 -42
-19 -42 -34 0 -5 5 -12 10 -15 14 -9 12 -25 -2 -25 -13 0 -98 88 -98 102 0 4
5 8 10 8 6 0 10 -4 10 -10 0 -5 10 -10 23 -10 18 0 19 2 7 10 -8 5 -12 10 -8
10 3 0 13 3 21 6 10 4 17 -1 19 -15 3 -17 5 -18 22 -6 18 13 18 16 2 49 -9 20
-20 35 -24 33 -8 -2 -62 38 -62 46 0 3 10 3 23 -1 12 -3 56 -40 97 -83z
m-1383 -43 c4 -3 -21 -6 -55 -6 -38 0 -62 -4 -62 -11 0 -7 25 -10 73 -7 68 3
72 2 75 -20 5 -33 22 -27 22 8 0 23 -4 30 -16 28 -10 -2 -19 2 -21 9 -3 8 9
12 37 11 39 0 40 -1 24 -19 -12 -13 -15 -27 -10 -55 6 -27 4 -34 -5 -29 -9 6
-10 -1 -5 -28 8 -40 -4 -53 -34 -37 -14 8 -20 8 -20 0 0 -8 -46 -10 -145 -9
-135 2 -162 7 -134 25 7 4 9 21 6 40 -6 37 8 56 18 24 3 -11 11 -20 16 -20 12
0 11 14 -3 28 -17 17 8 42 44 42 17 0 27 4 23 10 -8 12 -55 13 -55 1 0 -5 -9
-11 -20 -14 -13 -3 -20 0 -20 8 0 8 -8 18 -17 24 -13 7 28 9 130 6 82 -1 151
-6 154 -9z"/>
</g>
</svg>
