<svg xmlns="http://www.w3.org/2000/svg" viewBox="0 0 512 512"><g id="Hacker_anonymous"><path d="M376.6486,290.585c33.1139-2.6993,53.0354-39.24,35.9824-68.7766L325.7028,71.2424c-30.9793-53.6566-108.4263-53.6566-139.4056,0L99.369,221.8084c-17.053,29.5368,2.8685,66.0778,35.9824,68.7766A89.2917,89.2917,0,0,0,76,374.6774V426.952A27.048,27.048,0,0,0,103.0472,454H408.9528A27.048,27.048,0,0,0,436,426.952V374.6774A89.2919,89.2919,0,0,0,376.6486,290.585Z" style="fill:#5c3faa"/><path d="M190.3392,159.2316H321.6607a20.7834,20.7834,0,0,1,20.7834,20.7834v34.541A86.444,86.444,0,0,1,256,301h0a86.444,86.444,0,0,1-86.444-86.444V180.015a20.7834,20.7834,0,0,1,20.7834-20.7834Z" style="fill:#e6f4ff"/><path d="M256.0011,310a9,9,0,0,1-9-9V271.4243a9,9,0,0,1,18,0V301A9,9,0,0,1,256.0011,310Z" style="fill:#203d4c"/><path d="M287.87,260.1567a28.5534,28.5534,0,0,1-27.1977-20.2543,9.0026,9.0026,0,1,1,17.2529-5.15,10.3805,10.3805,0,0,0,19.89,0,9.0026,9.0026,0,1,1,17.2529,5.15A28.5536,28.5536,0,0,1,287.87,260.1567Z" style="fill:#203d4c"/><path d="M224.1276,260.1567a28.5441,28.5441,0,0,1-27.1934-20.2587,9.0014,9.0014,0,1,1,17.2529-5.1416,10.3785,10.3785,0,0,0,19.8853-.0044,9.0026,9.0026,0,1,1,17.2529,5.15A28.5535,28.5535,0,0,1,224.1276,260.1567Z" style="fill:#203d4c"/><path d="M322.3751,206.3283c-4.2244-12.1149-14.9992-20.7466-27.6618-20.7466s-23.4373,8.6317-27.6625,20.7466Z" style="fill:#203d4c"/><path d="M244.9491,206.3283c-4.2244-12.1149-14.9992-20.7466-27.6617-20.7466s-23.4374,8.6317-27.6625,20.7466Z" style="fill:#203d4c"/><rect x="130" y="314.5001" width="252" height="166.5" rx="13.5" style="fill:#27e2a4"/><circle cx="256.0011" cy="397.7501" r="22.5" style="fill:#e6f4ff"/></g></svg>